# xmcd CD database file
#
# Track frame offsets:
#	150
#	18791
#	67943
#	96168
#	119205
#	152077
#	178518
#	200986
#	250075
#
# Disc length: 3562 seconds
#
# Revision: 0
# Processed by: cddbd v1.5.2PL0 Copyright (c) Steve Scherf et al.
# Submitted via: CDex 1.51
#
DISCID=780de809
DTITLE=EABS - Repetitions
DYEAR=2017
DGENRE=Jazz
TTITLE0=01 Knowledge
TTITLE1=02 Per³y i dukaty XiV - Repetition
TTITLE2=03 Private Conversation VIII
TTITLE3=04 Niekochana
TTITLE4=05 Pingwin
TTITLE5=06 Free Witch and No Bra Queen - Suit
TTITLE6=07 God Is Love (Bariera XIII)
TTITLE7=08 Step Into the Light (Wiklinowy Kosz)
TTITLE8=09 Waltzing Beyond (The Song on the Day the World Ends)
EXTD=YEAR: 2017
EXTT0=
EXTT1=
EXTT2=
EXTT3=
EXTT4=
EXTT5=
EXTT6=
EXTT7=
EXTT8=
PLAYORDER=
